<svg width="40" height="40" viewBox="0 0 40 40" fill="none" xmlns="http://www.w3.org/2000/svg">
<g clip-path="url(#clip0_638_105)">
<g filter="url(#filter0_d_638_105)">
<circle cx="33.2" cy="21.8" r="1.8" fill="#2B2F29"/>
<ellipse cx="21.0762" cy="18.3868" rx="1.8" ry="1.79832" fill="#2B2F29"/>
<ellipse cx="23.9581" cy="31.2507" rx="1.69225" ry="1.79832" fill="#2B2F29"/>
<circle cx="15.8" cy="10.2" r="1.8" fill="#2B2F29"/>
<path d="M5.96628 20.6734C4.89983 20.3697 4.55902 19.018 5.33971 18.1884L14.2099 8.76221C15.0225 7.89862 16.4297 8.24573 16.7158 9.38036L19.9625 22.2568C20.2486 23.3914 19.1933 24.4397 18.0831 24.1236L5.96628 20.6734Z" fill="url(#paint0_linear_638_105)"/>
<path d="M20.113 19.6957C19.8233 18.547 20.8125 17.4958 21.8934 17.8036L34.0162 21.2555C35.0972 21.5633 35.4592 22.9992 34.6679 23.8402L25.7934 33.2709C25.0021 34.1119 23.6509 33.7271 23.3613 32.5784L20.113 19.6957Z" fill="url(#paint1_linear_638_105)"/>
<line y1="-0.4" x2="22.0214" y2="-0.4" transform="matrix(0.244492 0.969651 -0.96177 0.27386 16.8507 10.1077)" stroke="#2B2F29" stroke-width="0.8"/>
<line y1="-0.5" x2="12.4634" y2="-0.5" transform="matrix(0.96177 0.27386 -0.244492 0.969651 21.307 17.6072)" stroke="#2B2F29"/>
<path d="M19.823 17.1762L23.6305 8.0914L25.3228 9.12966L19.823 17.1762Z" fill="#2B2F29"/>
</g>
</g>
<defs>
<filter id="filter0_d_638_105" x="0.913666" y="8.09143" width="38.1809" height="33.6329" filterUnits="userSpaceOnUse" color-interpolation-filters="sRGB">
<feFlood flood-opacity="0" result="BackgroundImageFix"/>
<feColorMatrix in="SourceAlpha" type="matrix" values="0 0 0 0 0 0 0 0 0 0 0 0 0 0 0 0 0 0 127 0" result="hardAlpha"/>
<feOffset dy="4"/>
<feGaussianBlur stdDeviation="2"/>
<feComposite in2="hardAlpha" operator="out"/>
<feColorMatrix type="matrix" values="0 0 0 0 0 0 0 0 0 0 0 0 0 0 0 0 0 0 0.25 0"/>
<feBlend mode="normal" in2="BackgroundImageFix" result="effect1_dropShadow_638_105"/>
<feBlend mode="normal" in="SourceGraphic" in2="effect1_dropShadow_638_105" result="shape"/>
</filter>
<linearGradient id="paint0_linear_638_105" x1="10.5894" y1="13.591" x2="19.0012" y2="22.0721" gradientUnits="userSpaceOnUse">
<stop stop-color="#FF71AC"/>
<stop offset="1" stop-color="#FF4466"/>
</linearGradient>
<linearGradient id="paint1_linear_638_105" x1="20.2014" y1="19.9452" x2="29.6982" y2="27.7647" gradientUnits="userSpaceOnUse">
<stop stop-color="#FFD80B"/>
<stop offset="1" stop-color="#FCB836"/>
</linearGradient>
<clipPath id="clip0_638_105">
<rect width="40" height="40" fill="white"/>
</clipPath>
</defs>
</svg>
